<?xml version="1.0" standalone="no"?>
<!DOCTYPE svg PUBLIC "-//W3C//DTD SVG 20010904//EN"
 "http://www.w3.org/TR/2001/REC-SVG-20010904/DTD/svg10.dtd">
<svg version="1.0" xmlns="http://www.w3.org/2000/svg"
 width="200.000000pt" height="200.000000pt" viewBox="0 0 200.000000 200.000000"
 preserveAspectRatio="xMidYMid meet">
<metadata>
Created by potrace 1.11, written by Peter Selinger 2001-2013
</metadata>
<g transform="translate(0.000000,200.000000) scale(0.100000,-0.100000)"
fill="#000000" stroke="none">
<path d="M825 1731 c-16 -4 -30 -10 -29 -14 0 -4 7 -53 14 -108 l13 -101 44 5
c78 9 119 74 94 150 -20 59 -64 81 -136 68z m70 -30 c15 -1 34 -37 41 -76 4
-28 0 -39 -20 -60 -46 -46 -62 -35 -76 51 -13 81 -8 96 29 89 9 -2 21 -4 26
-4z"/>
<path d="M1121 1668 c-23 -136 -25 -158 -9 -158 11 0 19 25 31 93 21 113 21
127 3 127 -9 0 -18 -21 -25 -62z"/>
<path d="M1260 1680 c-36 -68 -78 -180 -69 -186 15 -9 22 1 55 79 l29 69 7
-59 c3 -32 8 -74 9 -93 3 -32 14 -49 30 -50 3 0 25 43 49 95 29 64 40 99 33
106 -14 14 -25 -3 -56 -81 -15 -36 -27 -58 -27 -50 -1 8 -3 22 -4 30 -2 8 -6
44 -10 79 -4 36 -9 68 -12 73 -9 14 -23 9 -34 -12z"/>
<path d="M584 1642 c-45 -36 -51 -87 -17 -142 42 -67 105 -79 154 -31 34 35
37 66 10 120 -34 67 -101 91 -147 53z m94 -35 c56 -60 43 -141 -21 -135 -59 6
-103 111 -59 144 26 20 56 17 80 -9z"/>
<path d="M1448 1486 c-38 -40 -68 -76 -68 -81 0 -16 63 -64 91 -70 58 -13 129
53 129 119 0 25 -9 45 -31 71 -17 19 -36 34 -43 34 -6 -1 -41 -34 -78 -73z
m106 12 c9 -12 16 -32 16 -44 0 -27 -42 -80 -68 -86 -21 -6 -82 16 -82 29 0
11 100 123 110 123 5 0 16 -10 24 -22z"/>
<path d="M373 1472 c-37 -29 -46 -69 -26 -111 38 -76 127 -104 177 -55 45 46
32 116 -31 158 -44 30 -89 33 -120 8z m87 -27 c56 -29 75 -81 43 -117 -24 -26
-58 -22 -96 12 -42 37 -52 75 -26 101 23 23 41 24 79 4z"/>
<path d="M932 1374 c-31 -22 -20 -33 26 -24 52 9 82 -3 82 -34 0 -29 -18 -44
-26 -22 -9 23 -30 20 -48 -6 -29 -41 -21 -58 25 -58 37 0 41 2 36 21 -4 15 -2
18 7 10 24 -20 51 26 47 81 -3 41 -106 63 -149 32z"/>
<path d="M1607 1320 c-49 -32 -89 -60 -89 -64 1 -25 17 -20 97 30 50 31 92 58
93 60 2 1 0 9 -5 17 -6 11 -26 2 -96 -43z"/>
<path d="M920 1316 c0 -10 -6 -13 -15 -10 -13 5 -17 -1 -14 -22 0 -4 -5 -10
-11 -14 -7 -4 -9 -13 -6 -19 11 -18 23 -13 30 13 3 13 13 27 22 30 14 5 15 4
5 -8 -8 -10 -9 -16 -1 -21 10 -6 17 5 22 40 2 12 -4 21 -14 23 -11 2 -18 -3
-18 -12z"/>
<path d="M231 1243 c-12 -31 -18 -60 -14 -64 7 -7 188 -79 199 -79 2 0 4 7 4
16 0 9 -17 22 -40 31 -44 18 -45 19 -30 59 17 45 -6 53 -24 9 -14 -34 -19 -37
-43 -30 -39 9 -39 10 -21 59 15 41 15 56 -2 56 -4 0 -17 -26 -29 -57z"/>
<path d="M865 1230 c3 -5 11 -10 16 -10 6 0 7 5 4 10 -3 6 -11 10 -16 10 -6 0
-7 -4 -4 -10z"/>
<path d="M1156 1230 c-13 -42 -14 -44 -15 -22 -1 22 -16 31 -23 13 -4 -11
-248 -18 -265 -8 -16 10 -17 2 -14 -75 l1 -33 170 0 c131 0 170 2 170 12 0 7
4 13 9 13 14 0 22 29 15 56 -4 17 -11 23 -21 20 -8 -3 -12 -2 -9 2 2 4 1 14
-4 22 -8 12 -10 12 -14 0z m-9 -72 c-3 -8 -6 -5 -6 6 -1 11 2 17 5 13 3 -3 4
-12 1 -19z"/>
<path d="M804 1206 c-3 -8 -12 -12 -20 -9 -11 4 -14 -5 -14 -42 0 -42 2 -46
20 -40 11 4 19 3 18 -2 -2 -4 2 -9 7 -10 6 -2 10 21 10 53 1 55 -10 80 -21 50z"/>
<path d="M1612 1212 c-69 -3 -84 -25 -20 -30 26 -2 38 -9 47 -28 16 -36 14
-46 -14 -69 -16 -13 -22 -24 -17 -33 12 -17 184 124 180 147 -3 17 -40 19
-176 13z m133 -29 c-5 -5 -22 -19 -37 -32 l-26 -23 -12 21 c-15 30 -8 37 42
40 24 1 39 -2 33 -6z"/>
<path d="M865 1091 c-3 -5 -1 -12 5 -16 5 -3 10 1 10 9 0 18 -6 21 -15 7z"/>
<path d="M903 1083 c-18 -6 -16 -32 2 -39 8 -4 12 -10 9 -16 -3 -5 3 -12 14
-15 18 -4 20 -14 21 -101 1 -53 4 -98 5 -100 2 -2 20 4 40 12 l36 15 0 71 c0
45 4 69 10 65 6 -3 10 -1 10 4 0 6 -4 11 -9 11 -6 0 -11 21 -13 48 -3 46 -4
47 -37 50 -23 2 -37 -2 -43 -12 -11 -20 -25 -21 -30 -3 -2 8 -9 12 -15 10z"/>
<path d="M288 1013 c34 -2 88 -2 120 0 31 2 3 3 -63 3 -66 0 -92 -1 -57 -3z"/>
<path d="M1598 1013 c34 -2 88 -2 120 0 31 2 3 3 -63 3 -66 0 -92 -1 -57 -3z"/>
<path d="M1050 965 c-10 -13 -9 -15 9 -15 12 0 21 6 21 15 0 8 -4 15 -9 15 -5
0 -14 -7 -21 -15z"/>
<path d="M1587 963 c-4 -3 -7 -13 -7 -22 0 -14 2 -14 10 -1 17 27 22 2 6 -29
-21 -39 -20 -41 7 -41 15 0 18 3 9 9 -10 6 -11 13 -1 34 17 36 -1 74 -24 50z"/>
<path d="M1641 961 c-7 -5 -11 -23 -9 -47 2 -31 7 -39 23 -39 16 0 20 7 20 34
0 19 5 36 12 38 8 3 11 -3 8 -16 -2 -12 0 -21 6 -21 12 0 12 47 0 55 -5 3 -13
1 -16 -5 -5 -7 -11 -8 -19 -1 -6 5 -17 6 -25 2z m19 -46 c0 -19 -4 -35 -8 -35
-4 0 -8 16 -8 35 0 19 4 35 8 35 4 0 8 -16 8 -35z"/>
<path d="M1732 957 c-5 -7 -8 -28 -8 -47 1 -28 5 -35 21 -35 17 0 20 7 21 42
1 43 -16 63 -34 40z m15 -29 c-3 -8 -6 -5 -6 6 -1 11 2 17 5 13 3 -3 4 -12 1
-19z m3 -33 c0 -8 -2 -15 -4 -15 -2 0 -6 7 -10 15 -3 8 -1 15 4 15 6 0 10 -7
10 -15z"/>
<path d="M284 915 l0 -44 42 1 c47 1 63 18 39 42 -21 21 -18 33 7 31 19 -1 23
-7 22 -38 0 -20 3 -37 8 -37 4 0 8 18 8 39 0 22 5 41 13 44 6 3 -10 5 -36 5
-53 -1 -74 -21 -44 -43 25 -18 20 -30 -13 -32 -30 -2 -43 20 -17 30 10 4 10 6
0 6 -7 1 -13 7 -13 15 0 8 6 17 13 19 6 3 3 6 -8 6 -17 1 -20 -6 -21 -44z"/>
<path d="M1071 941 c-10 -6 -10 -10 -2 -16 9 -5 9 -10 1 -20 -6 -7 -10 -17 -9
-21 3 -20 -14 -54 -27 -54 -8 0 -14 -4 -14 -10 0 -5 -9 -10 -19 -10 -23 0 -37
-30 -19 -42 9 -5 6 -8 -9 -8 -16 0 -21 4 -17 15 8 20 -6 19 -33 -3 -17 -13
-20 -21 -12 -32 8 -11 12 -12 16 -2 9 22 20 13 15 -14 -2 -14 -16 -32 -29 -41
-23 -15 -27 -15 -58 1 -19 10 -46 32 -62 48 l-28 30 38 -5 c22 -3 37 -1 37 6
0 14 -108 157 -119 157 -4 0 -8 -6 -8 -12 -1 -7 -10 -51 -22 -98 -11 -47 -21
-88 -21 -92 0 -15 29 -8 39 9 8 15 15 11 56 -30 27 -26 56 -49 66 -52 11 -4
19 -15 19 -26 0 -11 7 -22 15 -25 8 -4 15 -15 15 -25 0 -10 5 -19 11 -19 5 0
7 -5 4 -10 -7 -12 20 -25 34 -16 14 9 1 47 -20 54 -12 5 -15 12 -10 20 5 9 20
2 53 -28 l46 -40 16 24 c8 13 40 37 70 52 58 29 120 82 148 124 l16 25 26 -24
c33 -31 33 -22 4 99 -25 105 -36 110 -80 40 -64 -103 -72 -134 -30 -111 37 20
32 -3 -9 -41 -63 -59 -116 -51 -129 18 -3 22 -11 38 -18 37 -6 -2 -9 4 -6 12
4 8 10 12 16 9 11 -7 64 43 55 52 -3 4 1 13 9 21 10 11 12 19 5 27 -7 9 -7 16
1 24 15 15 -2 34 -21 23z"/>
<path d="M1696 885 c4 -8 8 -15 10 -15 2 0 4 7 4 15 0 8 -4 15 -10 15 -5 0 -7
-7 -4 -15z"/>
<path d="M430 880 c0 -5 5 -10 11 -10 5 0 7 5 4 10 -3 6 -8 10 -11 10 -2 0 -4
-4 -4 -10z"/>
<path d="M288 833 c34 -2 88 -2 120 0 31 2 3 3 -63 3 -66 0 -92 -1 -57 -3z"/>
<path d="M1598 833 c34 -2 88 -2 120 0 31 2 3 3 -63 3 -66 0 -92 -1 -57 -3z"/>
<path d="M872 733 c1 -10 -1 -24 -5 -30 -12 -20 14 -16 28 4 7 9 11 23 8 30
-8 20 -35 16 -31 -4z"/>
<path d="M1527 592 c-9 -10 -17 -23 -17 -29 0 -9 56 -58 88 -77 16 -9 42 11
42 31 0 12 -3 13 -14 4 -21 -17 -48 -3 -40 22 5 16 3 19 -10 14 -25 -10 -49 3
-35 19 18 22 5 38 -14 16z"/>
<path d="M388 525 c-27 -25 -43 -47 -37 -51 6 -3 18 1 28 10 11 10 25 14 36
10 14 -6 16 -3 11 14 -8 25 10 38 30 21 22 -18 30 -2 9 21 -10 11 -21 20 -24
20 -3 0 -27 -20 -53 -45z"/>
<path d="M1470 523 c0 -4 10 -18 23 -32 l22 -25 -27 17 c-30 19 -48 22 -48 8
0 -16 86 -102 93 -94 4 3 -3 17 -15 30 -24 26 -13 31 18 8 50 -38 45 -2 -8 52
-40 41 -58 52 -58 36z"/>
<path d="M930 504 c0 -9 7 -14 17 -12 25 5 28 28 4 28 -12 0 -21 -6 -21 -16z"/>
<path d="M460 468 c-43 -46 -47 -57 -28 -76 21 -21 44 -13 76 27 37 46 39 62
12 79 -18 11 -25 8 -60 -30z m60 4 c0 -4 -16 -23 -35 -42 -41 -39 -47 -26 -9
19 25 30 44 40 44 23z"/>
<path d="M973 493 c-18 -6 -16 -23 1 -23 17 0 30 16 19 23 -5 2 -14 2 -20 0z"/>
<path d="M1398 465 c-9 -10 72 -116 83 -109 11 7 -1 28 -43 77 -18 21 -36 35
-40 32z"/>
<path d="M563 431 c-10 -11 -27 -36 -38 -56 -19 -36 -19 -37 0 -51 29 -21 38
-18 68 30 32 51 34 72 7 86 -15 8 -23 6 -37 -9z m37 -16 c0 -16 -52 -85 -60
-80 -10 6 37 85 51 85 5 0 9 -2 9 -5z"/>
<path d="M1330 415 c-9 -11 -6 -24 16 -65 28 -51 51 -63 73 -36 12 15 5 46
-11 46 -6 0 -8 -9 -5 -20 8 -31 -9 -24 -32 14 -25 39 -28 65 -8 47 16 -13 28
-5 20 15 -7 18 -37 18 -53 -1z"/>
<path d="M636 344 c-30 -66 -31 -70 -10 -78 37 -14 50 -6 72 47 l23 52 -22 18
c-12 9 -25 17 -29 17 -5 0 -20 -25 -34 -56z m54 17 c0 -19 -31 -81 -40 -81
-14 0 -12 14 7 55 16 33 33 47 33 26z"/>
<path d="M1270 381 c0 -5 11 -34 26 -66 17 -39 28 -55 35 -48 7 7 1 29 -17 67
-25 50 -44 71 -44 47z"/>
<path d="M1198 358 l-26 -9 20 -62 c12 -34 22 -63 23 -65 1 -1 14 2 29 7 29
12 32 28 13 84 -18 49 -27 56 -59 45z m35 -45 c3 -16 9 -36 13 -47 5 -14 3
-17 -7 -14 -19 6 -42 88 -25 88 8 0 16 -12 19 -27z"/>
<path d="M766 289 c-16 -59 -15 -83 3 -63 4 5 15 35 24 67 12 44 13 57 3 57
-7 0 -20 -28 -30 -61z"/>
<path d="M830 315 c-11 -29 -4 -55 16 -55 8 0 14 -9 14 -20 0 -25 -15 -26 -24
-3 -6 15 -8 15 -16 3 -12 -19 8 -42 33 -38 30 4 42 55 16 71 -20 12 -27 47 -9
47 6 0 10 -7 10 -15 0 -8 5 -15 10 -15 16 0 11 37 -6 44 -27 10 -34 7 -44 -19z"/>
<path d="M1095 293 c13 -96 18 -103 59 -87 23 9 20 26 -4 19 -15 -5 -20 -2
-20 14 0 11 5 23 10 26 15 9 12 25 -4 19 -8 -3 -16 3 -19 15 -4 16 0 21 14 21
10 0 19 5 19 10 0 6 -14 10 -31 10 l-31 0 7 -47z"/>
<path d="M967 323 c-3 -5 -4 -28 -2 -53 2 -25 4 -53 4 -62 2 -29 21 -20 22 10
0 15 3 21 6 15 7 -20 23 -15 33 10 8 19 9 17 9 -15 1 -21 6 -38 11 -38 13 0
10 129 -3 137 -12 7 -18 -2 -26 -39 l-8 -33 -16 38 c-16 37 -22 43 -30 30z"/>
</g>
</svg>
